Coordinates
version=1
nRows=49
nColumns=12
inDegrees=yes

Units are S.I. units (second, meters, Newtons, ...)
Angles are in degrees

endheader
time	SC_y	SC_z	SC_x	AC_y	AC_z	AC_x	GH_y	GH_z	GH_yy	EL_x	PS_y
       0.0              -19.28          33.73          69.08           41.5          3.642         -12.15         -89.55          9.766          150.8          64.13          149.6
   0.04009              -19.28          33.73          69.08           41.5          3.639         -12.15         -89.53          9.777          150.8          64.12          149.5
   0.08017              -19.28          33.73          69.08           41.5          3.637         -12.15          -89.5          9.788          150.8          64.12          149.5
    0.1203              -19.28          33.72          69.08           41.5          3.634         -12.15         -89.48          9.801          150.8          64.11          149.5
    0.1603              -19.28          33.72          69.08           41.5           3.63         -12.14         -89.45          9.814          150.7          64.11          149.5
    0.2004              -19.28          33.71          69.08           41.5          3.627         -12.14         -89.42          9.828          150.7           64.1          149.5
    0.2405              -19.28          33.71          69.09           41.5          3.624         -12.13         -89.39          9.844          150.7           64.1          149.5
    0.2806              -19.28           33.7          69.09           41.5           3.62         -12.13         -89.36           9.86          150.7          64.09          149.4
    0.3207              -19.28           33.7          69.09           41.5          3.616         -12.13         -89.32          9.877          150.6          64.09          149.4
    0.3608              -19.28          33.69          69.09           41.5          3.611         -12.12         -89.29          9.896          150.6          64.08          149.4
    0.4009              -19.28          33.69           69.1           41.5          3.606         -12.12         -89.24          9.916          150.6          64.07          149.4
    0.4409              -19.28          33.68           69.1           41.5          3.601         -12.11          -89.2          9.938          150.5          64.07          149.3
     0.481              -19.28          33.67           69.1           41.5          3.596         -12.11         -89.15          9.961          150.5          64.06          149.3
    0.5211              -19.27          33.67           69.1           41.5           3.59          -12.1          -89.1          9.986          150.4          64.05          149.3
    0.5612              -19.27          33.66          69.11           41.5          3.584         -12.09         -89.05          10.01          150.4          64.04          149.2
    0.6013              -19.27          33.65          69.11          41.51          3.577         -12.08         -88.99          10.04          150.3          64.03          149.2
    0.6414              -19.27          33.64          69.12          41.51          3.569         -12.08         -88.92          10.07          150.2          64.02          149.2
    0.6815              -19.27          33.63          69.12          41.51          3.561         -12.07         -88.85          10.11          150.2          64.01          149.1
    0.7215              -19.27          33.62          69.13          41.51          3.552         -12.06         -88.77          10.15          150.1           64.0          149.1
    0.7616              -19.27           33.6          69.13          41.51          3.542         -12.05         -88.69          10.19          150.0          63.98          149.0
    0.8017              -19.27          33.59          69.14          41.51          3.531         -12.04         -88.59          10.23          149.9          63.97          149.0
    0.8418              -19.27          33.57          69.14          41.52          3.519         -12.02         -88.49          10.29          149.8          63.95          148.9
    0.8819              -19.27          33.56          69.15          41.52          3.506         -12.01         -88.38          10.34          149.7          63.93          148.9
     0.922              -19.27          33.54          69.16          41.52          3.492         -11.99         -88.25           10.4          149.6          63.91          148.8
    0.9621              -19.27          33.52          69.17          41.52          3.475         -11.98         -88.11          10.47          149.5          63.89          148.7
     1.002              -19.27          33.49          69.18          41.53          3.457         -11.96         -87.95          10.55          149.3          63.86          148.6
     1.042              -19.27          33.47          69.19          41.53          3.437         -11.94         -87.78          10.63          149.2          63.83          148.5
     1.082              -19.27          33.44           69.2          41.53          3.414         -11.91         -87.58          10.73          149.0           63.8          148.4
     1.122              -19.27           33.4          69.22          41.54          3.389         -11.88         -87.36          10.84          148.8          63.76          148.2
     1.162              -19.27          33.36          69.23          41.54           3.36         -11.85         -87.11          10.96          148.5          63.72          148.1
     1.203              -19.26          33.32          69.25          41.55          3.326         -11.82         -86.82           11.1          148.3          63.67          147.9
     1.243              -19.26          33.27          69.27          41.55          3.288         -11.78         -86.49          11.27          148.0          63.61          147.7
     1.283              -19.26          33.21           69.3          41.56          3.244         -11.73         -86.11          11.45          147.6          63.55          147.5
     1.323              -19.26          33.15          69.33          41.57          3.193         -11.68         -85.66          11.67          147.2          63.48          147.2
     1.363              -19.26          33.07          69.36          41.58          3.133         -11.61         -85.14          11.92          146.7          63.39          146.9
     1.403              -19.25          32.98           69.4          41.59          3.062         -11.54         -84.53          12.22          146.1          63.29          146.6
     1.443              -19.25          32.87          69.44           41.6          2.978         -11.45          -83.8          12.58          145.4          63.17          146.1
     1.483              -19.25          32.74           69.5          41.62          2.877         -11.34         -82.93          13.01          144.6          63.02          145.6
     1.523              -19.24          32.58          69.57          41.64          2.755         -11.21         -81.88          13.52          143.6          62.84          145.0
     1.563              -19.24          32.38          69.65          41.66          2.606         -11.05         -80.59          14.15          142.4          62.63          144.2
     1.603              -19.23          32.14          69.75          41.69          2.422         -10.86          -79.0          14.93          140.9          62.36          143.3
     1.644              -19.22          31.84          69.88          41.73          2.193         -10.61         -77.01           15.9          139.1          62.03          142.1
     1.684              -19.21          31.47          70.04          41.77          1.905         -10.31         -74.51          17.13          136.7          61.62          140.6
     1.724               -19.2          30.99          70.25          41.83          1.538         -9.915         -71.34          18.68          133.8          61.09          138.7
     1.764              -19.18          30.38          70.51          41.91          1.068         -9.415         -67.27          20.67          129.9          60.41          136.3
     1.804              -19.16          29.59          70.84           42.0          0.465         -8.774         -62.06          23.23          125.0          59.54          133.2
     1.844              -19.13          28.59          71.27          42.13         -0.305         -7.955         -55.39          26.49          118.8          58.42          129.2
     1.884              -19.09          27.33          71.81          42.28         -1.273         -6.924         -47.01          30.59          110.9          57.02          124.2
     1.924              -19.05          25.79          72.46          42.47         -2.453         -5.669          -36.8          35.59          101.3          55.32          118.1
